<svg preserveAspectRatio="xMidYMid meet" data-bbox="0.234 0 254.532 135.5" height="181" viewBox="0 0 255 135.75" width="340" xmlns="http://www.w3.org/2000/svg" data-type="ugc" role="presentation" aria-hidden="true" aria-label="">
    <g>
        <defs>
            <clipPath id="886a0ddb-f7c8-40be-ab20-ebfef42071f2_comp-iia9pkey">
                <path d="M.234 0h254.532v135.5H.234Zm0 0"></path>
            </clipPath>
            <clipPath id="02976a56-6cb3-41e7-a925-76c001c40a42_comp-iia9pkey">
                <path d="M61 42h65v36H61Zm0 0"></path>
            </clipPath>
            <clipPath id="613e3fdd-9ccf-4516-80a6-fba239a04f11_comp-iia9pkey">
                <path d="m52.438 69.809 10.64-39.141 71.586 19.457-10.637 39.14Zm0 0"></path>
            </clipPath>
            <clipPath id="255cd9ca-87c5-417f-8083-82cfb49ed8f1_comp-iia9pkey">
                <path d="m52.438 69.809 10.64-39.141 71.586 19.457-10.637 39.14Zm0 0"></path>
            </clipPath>
            <clipPath id="3a62c4a8-77ec-4745-892d-989a87732c1e_comp-iia9pkey">
                <path d="m59.898 36.316 27.27-30.02 54.914 49.876-27.27 30.023Zm0 0"></path>
            </clipPath>
            <clipPath id="8680cd5b-7284-4963-85cf-7b345778e520_comp-iia9pkey">
                <path d="m59.898 36.316 27.27-30.02 54.914 49.876-27.27 30.023Zm0 0"></path>
            </clipPath>
            <clipPath id="60a9813c-f1d8-467e-9506-75a93e4ea930_comp-iia9pkey">
                <path d="m59.898 36.316 27.27-30.02 54.914 49.876-27.27 30.023Zm0 0"></path>
            </clipPath>
            <clipPath id="8728c09d-04dd-4d08-b73c-d914e06f63f4_comp-iia9pkey">
                <path d="M97 5h37v65H97Zm0 0"></path>
            </clipPath>
            <clipPath id="1c686d8d-9e06-468c-9876-3fea4ae4f0d4_comp-iia9pkey">
                <path d="m85.422 8.04 38.875-11.567 21.16 71.101-38.875 11.567Zm0 0"></path>
            </clipPath>
            <clipPath id="d6dea5b7-13b0-448b-9628-15e0b1530837_comp-iia9pkey">
                <path d="m85.422 8.04 38.875-11.567 21.16 71.101-38.875 11.567Zm0 0"></path>
            </clipPath>
            <clipPath id="e9b47144-5511-401e-a6c6-57e05f92ca81_comp-iia9pkey">
                <path d="M113 4h36v66h-36Zm0 0"></path>
            </clipPath>
            <clipPath id="df56493c-1dd7-4ba6-85da-4ad7698fdd3c_comp-iia9pkey">
                <path d="m120.785-3.504 39.34 9.863-18.047 71.957-39.34-9.863Zm0 0"></path>
            </clipPath>
            <clipPath id="7ee74997-a841-48d6-9389-4f3cc01d85fc_comp-iia9pkey">
                <path d="m120.785-3.504 39.34 9.863-18.047 71.957-39.34-9.863Zm0 0"></path>
            </clipPath>
            <clipPath id="3cd7c331-561e-4efb-b3ee-b7ee1f7a5774_comp-iia9pkey">
                <path d="M123 21h48v49h-48Zm0 0"></path>
            </clipPath>
            <clipPath id="a5b08e08-804e-483a-955f-bcb4977d69ac_comp-iia9pkey">
                <path d="m158.625 4.676 28.68 28.68-52.457 52.457-28.68-28.68Zm0 0"></path>
            </clipPath>
            <clipPath id="f1506303-aafe-426a-ac1c-b84f6fd8d34b_comp-iia9pkey">
                <path d="M123 41h65v37h-65Zm0 0"></path>
            </clipPath>
            <clipPath id="7e5a8a1d-f1c2-404a-871d-53981e5f6fab_comp-iia9pkey">
                <path d="m184.617 29.008 12.348 38.633L126.3 90.227l-12.348-38.633Zm0 0"></path>
            </clipPath>
            <clipPath id="730ed674-83d2-4555-bb9f-b8ac47740e3c_comp-iia9pkey">
                <path d="m184.617 29.008 12.348 38.633L126.3 90.227l-12.348-38.633Zm0 0"></path>
            </clipPath>
        </defs>
        <g clip-path="url(#886a0ddb-f7c8-40be-ab20-ebfef42071f2_comp-iia9pkey)">
            <path d="M.234 0h254.532v135.5H.234Zm0 0" fill="#ffffff"></path>
            <path d="M.234 0h254.532v135.5H.234Zm0 0" fill="#ffffff"></path>
        </g>
        <g clip-path="url(#02976a56-6cb3-41e7-a925-76c001c40a42_comp-iia9pkey)">
            <g clip-path="url(#613e3fdd-9ccf-4516-80a6-fba239a04f11_comp-iia9pkey)">
                <g clip-path="url(#255cd9ca-87c5-417f-8083-82cfb49ed8f1_comp-iia9pkey)">
                    <path d="M98.016 43.52c17.879 4.859 27.937 25.101 27.937 25.101s-19.023 12.746-36.902 7.887c-17.875-4.86-27.836-25.48-27.836-25.48s18.926-12.364 36.8-7.508" fill="#194d24"></path>
                </g>
            </g>
        </g>
        <g clip-path="url(#3a62c4a8-77ec-4745-892d-989a87732c1e_comp-iia9pkey)">
            <g clip-path="url(#8680cd5b-7284-4963-85cf-7b345778e520_comp-iia9pkey)">
                <g clip-path="url(#60a9813c-f1d8-467e-9506-75a93e4ea930_comp-iia9pkey)">
                    <path d="M112.492 33.563c13.711 12.453 13.442 35.082 13.442 35.082s-22.762 2.73-36.473-9.723S76.285 23.55 76.285 23.55s22.5-2.442 36.207 10.012" fill="#236d5e"></path>
                </g>
            </g>
        </g>
        <g clip-path="url(#8728c09d-04dd-4d08-b73c-d914e06f63f4_comp-iia9pkey)">
            <g clip-path="url(#1c686d8d-9e06-468c-9876-3fea4ae4f0d4_comp-iia9pkey)">
                <g clip-path="url(#d6dea5b7-13b0-448b-9628-15e0b1530837_comp-iia9pkey)">
                    <path d="M131.773 32.941c5.282 17.758-6.628 36.97-6.628 36.97s-20.856-9.466-26.137-27.22c-5.285-17.757 7.004-37.078 7.004-37.078s20.476 9.575 25.761 27.328" fill="#0fb268"></path>
                </g>
            </g>
        </g>
        <g clip-path="url(#e9b47144-5511-401e-a6c6-57e05f92ca81_comp-iia9pkey)">
            <g clip-path="url(#df56493c-1dd7-4ba6-85da-4ad7698fdd3c_comp-iia9pkey)">
                <g clip-path="url(#7ee74997-a841-48d6-9389-4f3cc01d85fc_comp-iia9pkey)">
                    <path d="M147.96 41.547c-4.503 17.969-24.546 28.426-24.546 28.426s-13.117-18.77-8.61-36.739c4.508-17.972 24.926-28.332 24.926-28.332s12.739 18.676 8.23 36.645" fill="#2ed165"></path>
                </g>
            </g>
        </g>
        <g clip-path="url(#3cd7c331-561e-4efb-b3ee-b7ee1f7a5774_comp-iia9pkey)">
            <g clip-path="url(#a5b08e08-804e-483a-955f-bcb4977d69ac_comp-iia9pkey)">
                <path d="M158.79 57.29c-13.102 13.1-35.665 11.769-35.665 11.769s-1.61-22.84 11.492-35.942c13.098-13.097 35.942-11.492 35.942-11.492s1.328 22.566-11.77 35.664" fill="#3ddd94"></path>
            </g>
        </g>
        <g clip-path="url(#f1506303-aafe-426a-ac1c-b84f6fd8d34b_comp-iia9pkey)">
            <g clip-path="url(#7e5a8a1d-f1c2-404a-871d-53981e5f6fab_comp-iia9pkey)">
                <g clip-path="url(#730ed674-83d2-4555-bb9f-b8ac47740e3c_comp-iia9pkey)">
                    <path d="M160.652 75.848c-17.648 5.64-37.093-5.883-37.093-5.883s9.039-21.04 26.687-26.68c17.645-5.637 37.211 6.258 37.211 6.258s-9.16 20.664-26.805 26.305" fill="#a7edcd"></path>
                </g>
            </g>
        </g>
        <path d="M86.746 92.895q.358 4.36-1.031 7.922-1.377 3.562-4.36 5.719-2.971 2.157-7.484 2.312-4.406.159-7.781-1.75a13.6 13.6 0 0 1-5.266-5.344q-1.89-3.433-1.89-7.734c0-2.945.582-5.563 1.75-7.844q1.765-3.434 5-5.39 3.247-1.97 7.719-1.97 2.812.001 5.624.876a17.5 17.5 0 0 1 5.157 2.578l-.578 3.031q-1.44-2.076-4.235-3.344-2.782-1.278-5.968-1.28-3.83 0-6.547 1.671-2.707 1.674-4.141 4.672c-.96 2-1.437 4.336-1.437 7 0 2.586.507 4.851 1.53 6.797q1.548 2.924 4.36 4.547 2.825 1.627 6.656 1.625 5.42-.17 8.313-3.438 2.905-3.263 2.64-8.687-.532 0-2.109-.047a93 93 0 0 0-3.484-.063 43 43 0 0 0-3.578.14c-1.118.087-1.938.25-2.47.5l.892-2.5Zm0 0" fill="#201b18"></path>
        <path d="M97.42 107.723v.438q0 .204.046.421H93.28c.351-.32.75-.843 1.187-1.562q.669-1.091 1.297-2.422.638-1.342 1.172-2.531.527-1.201.797-1.828l9.625-21.797 9.672 21.797q.263.627.797 1.828a59 59 0 0 0 2.5 4.953q.638 1.08 1.171 1.562h-4.203c.114-.601.051-1.359-.187-2.265q-.347-1.358-.922-2.781a69 69 0 0 0-1.172-2.735l-.953-2.156h-13.344q-.316.69-.844 1.89-.533 1.189-1.125 2.547a24 24 0 0 0-.953 2.594q-.375 1.252-.375 2.047m9.937-24.61-5.953 13.829h11.968Zm0 0" fill="#201b18"></path>
        <path d="M142.28 106.551c.532 0 1.352-.004 2.47-.016q1.67-.028 3.562-.109a31 31 0 0 0 3.422-.312c1.031-.164 1.723-.391 2.078-.672l-.734 3.14H130.64q.263-.327.39-1.406.142-1.09.188-2.469.061-1.388.063-2.562V85.536c0-.801-.024-1.649-.063-2.547a27 27 0 0 0-.187-2.454q-.128-1.09-.39-1.406h21.687q-.001.001.156.781.151.769.375 1.532.218.767.219.875c-.356-.32-1.047-.563-2.078-.719a33 33 0 0 0-3.438-.312q-1.877-.075-3.578-.11-1.704-.03-2.5-.031h-8.031v11.703h8.937q1.17 0 2.547-.047 1.39-.058 2.469-.187c.726-.094 1.203-.227 1.422-.407v3.032q-.331-.263-1.422-.391a26 26 0 0 0-2.469-.187 61 61 0 0 0-2.547-.063h-8.937v11.953Zm0 0" fill="#201b18"></path>
        <path d="M166.517 107.723v.438q0 .204.047.421h-4.187c.351-.32.75-.843 1.187-1.562q.669-1.091 1.297-2.422.638-1.342 1.172-2.531.527-1.201.797-1.828l9.625-21.797 9.672 21.797q.263.627.796 1.828a59 59 0 0 0 2.5 4.953q.64 1.08 1.172 1.562h-4.203c.114-.601.051-1.359-.187-2.265-.23-.906-.54-1.832-.922-2.781a69 69 0 0 0-1.172-2.735l-.953-2.156h-13.344q-.315.69-.844 1.89-.532 1.189-1.125 2.547a24 24 0 0 0-.953 2.594q-.375 1.252-.375 2.047m9.938-24.61-5.953 13.829h11.968Zm0 0" fill="#201b18"></path>
        <path d="M74.456 119.932q-.643 0-1.157-.281a2.1 2.1 0 0 1-.797-.766 2.13 2.13 0 0 1-.28-1.094q0-.622.28-1.11a2.13 2.13 0 0 1 .813-.765 2.34 2.34 0 0 1 1.14-.281q.48.001.891.172.422.157.703.484l-.39.375q-.471-.499-1.188-.5-.468 0-.844.219-.376.204-.593.578a1.65 1.65 0 0 0-.203.828c0 .305.066.578.203.828q.217.363.593.579.376.203.844.203.703.002 1.188-.5l.39.375a1.8 1.8 0 0 1-.703.5q-.41.157-.89.156m0 0" fill="#4d3e19"></path>
        <path d="M80.173 119.932c-.43 0-.812-.094-1.156-.281a2.1 2.1 0 0 1-.797-.766 2.1 2.1 0 0 1-.297-1.094q0-.609.297-1.093.293-.5.797-.782a2.4 2.4 0 0 1 1.156-.281q.622 0 1.125.281.516.284.797.766c.195.324.297.695.297 1.11 0 .406-.102.773-.297 1.093a2 2 0 0 1-.797.766q-.503.28-1.125.28m0-.531q.45 0 .813-.203c.25-.145.445-.336.593-.579a1.6 1.6 0 0 0 .22-.828 1.58 1.58 0 0 0-.813-1.406 1.55 1.55 0 0 0-.813-.219q-.468 0-.844.219-.376.204-.593.578a1.65 1.65 0 0 0-.203.828c0 .305.066.578.203.828q.217.363.593.579.376.203.844.203m0 0" fill="#4d3e19"></path>
        <path d="M88.28 115.682v4.203h-.484l-2.516-3.125v3.125h-.609v-4.203h.5l2.516 3.14v-3.14Zm0 0" fill="#4d3e19"></path>
        <path d="M92.14 119.932q-.487 0-.921-.14a1.9 1.9 0 0 1-.688-.391l.219-.47c.156.15.36.267.61.36.25.086.507.125.78.125.344 0 .598-.054.766-.172a.53.53 0 0 0 .266-.468.44.44 0 0 0-.141-.344.85.85 0 0 0-.344-.203 6 6 0 0 0-.593-.172 6 6 0 0 1-.766-.219 1.5 1.5 0 0 1-.5-.36q-.204-.23-.203-.64c0-.226.054-.43.172-.61a1.27 1.27 0 0 1 .547-.421q.357-.17.89-.172c.25 0 .492.031.735.094q.356.093.625.281l-.204.484a2.1 2.1 0 0 0-.562-.25 2 2 0 0 0-.594-.093q-.503 0-.765.187a.56.56 0 0 0-.25.469q0 .22.14.36a1 1 0 0 0 .36.202q.215.082.578.157.468.129.75.234.293.11.5.344.217.235.218.64 0 .329-.187.61-.174.27-.547.422-.364.157-.89.156m0 0" fill="#4d3e19"></path>
        <path d="M97.745 119.932q-.843 0-1.312-.469-.47-.481-.47-1.39v-2.391h.595v2.36q-.001 1.359 1.187 1.359.576 0 .875-.328.312-.34.313-1.032v-2.36h.578v2.392q0 .909-.47 1.39-.469.47-1.296.469m0 0" fill="#4d3e19"></path>
        <path d="M102.104 115.682h.61v3.687h2.265v.516h-2.875Zm0 0" fill="#4d3e19"></path>
        <path d="M107.874 116.213h-1.438v-.531h3.469v.531h-1.437v3.672h-.594Zm0 0" fill="#4d3e19"></path>
        <path d="M113.82 119.932c-.43 0-.812-.094-1.156-.281a2.1 2.1 0 0 1-.797-.766 2.1 2.1 0 0 1-.297-1.094q0-.609.297-1.093.293-.5.797-.782a2.4 2.4 0 0 1 1.156-.281q.622 0 1.125.281.516.284.797.766c.195.324.297.695.297 1.11 0 .406-.102.773-.297 1.093a2 2 0 0 1-.797.766q-.503.28-1.125.28m0-.531q.45 0 .813-.203c.25-.145.445-.336.594-.579a1.6 1.6 0 0 0 .218-.828 1.58 1.58 0 0 0-.812-1.406 1.55 1.55 0 0 0-.813-.219q-.468 0-.843.219-.376.204-.594.578a1.65 1.65 0 0 0-.203.828c0 .305.066.578.203.828q.218.363.594.579.374.203.843.203m0 0" fill="#4d3e19"></path>
        <path d="m121.13 119.885-.906-1.297a3 3 0 0 1-.265.016h-1.032v1.281h-.609v-4.203h1.64c.54 0 .97.133 1.282.39q.469.393.469 1.079 0 .487-.235.828-.235.346-.687.5l1 1.406Zm-1.187-1.781q.561.001.86-.25.31-.246.312-.703-.001-.453-.313-.688-.297-.248-.859-.25h-1.016v1.89Zm0 0" fill="#4d3e19"></path>
        <path d="M124.042 115.682h.61v4.203h-.61Zm0 0" fill="#4d3e19"></path>
        <path d="M129.95 118.838h-2.234l-.469 1.047h-.609l1.89-4.203h.594l1.907 4.203h-.625Zm-.218-.484-.906-2.063-.907 2.063Zm0 0" fill="#4d3e19"></path>
        <path d="M138.679 118.838h-2.235l-.469 1.047h-.609l1.89-4.203h.594l1.907 4.203h-.625Zm-.22-.484-.905-2.063-.907 2.063Zm0 0" fill="#4d3e19"></path>
        <path d="m145.652 119.885-.015-3.062-1.516 2.546h-.281l-1.516-2.53v3.046h-.578v-4.203h.5l1.75 2.953 1.734-2.953h.485v4.203Zm0 0" fill="#4d3e19"></path>
        <path d="M151.67 117.713q.373.095.577.36.201.269.203.671 0 .552-.406.844-.409.298-1.187.297h-2.016v-4.203h1.89q.716.002 1.11.297.388.28.39.797c0 .218-.054.414-.156.578a.9.9 0 0 1-.406.36m-2.22-1.547v1.344h1.22q.467.002.718-.172a.57.57 0 0 0 .25-.5.58.58 0 0 0-.25-.5q-.25-.17-.719-.172Zm1.375 3.235q.515.002.766-.172.265-.17.266-.531 0-.705-1.032-.704h-1.375v1.407Zm0 0" fill="#4d3e19"></path>
        <path d="M154.746 115.682h.61v4.203h-.61Zm0 0" fill="#4d3e19"></path>
        <path d="M161.013 119.37v.515h-3.047v-4.203h2.969v.531h-2.36v1.281h2.11v.516h-2.11v1.36Zm0 0" fill="#4d3e19"></path>
        <path d="M166.958 115.682v4.203h-.484l-2.516-3.125v3.125h-.609v-4.203h.5l2.516 3.14v-3.14Zm0 0" fill="#4d3e19"></path>
        <path d="M170.429 116.213h-1.438v-.531h3.469v.531h-1.437v3.672h-.594Zm0 0" fill="#4d3e19"></path>
        <path d="M177.156 118.838h-2.235l-.469 1.047h-.609l1.89-4.203h.594l1.907 4.203h-.625Zm-.22-.484-.906-2.063-.906 2.063Zm0 0" fill="#4d3e19"></path>
        <path d="M180.223 115.682h.61v3.687h2.265v.516h-2.875Zm0 0" fill="#4d3e19"></path>
    </g>
</svg>
